<?xml version="1.0" encoding="UTF-8"?><svg id="_레이어_2" xmlns="http://www.w3.org/2000/svg" viewBox="0 0 73.61 73.61"><g id="Layer_1"><g><path d="m70.26,13.38h-16.73V3.35c0-1.85-1.5-3.35-3.35-3.35h-26.77c-1.85,0-3.35,1.5-3.35,3.35v10.04H3.35c-1.85,0-3.35,1.5-3.35,3.35s1.5,3.35,3.35,3.35h3.55l3.15,50.4c.11,1.76,1.57,3.14,3.34,3.14h46.84c1.77,0,3.23-1.37,3.34-3.14l3.15-50.4h3.55c1.85,0,3.35-1.5,3.35-3.35s-1.5-3.35-3.35-3.35ZM26.77,6.69h20.07v6.69h-20.07v-6.69Zm30.31,60.22H16.53l-2.93-46.84h46.41l-2.93,46.84Z"/><path d="m23.42,30.11c-1.85,0-3.35,1.5-3.35,3.35v20.07c0,1.85,1.5,3.35,3.35,3.35s3.35-1.5,3.35-3.35v-20.07c0-1.85-1.5-3.35-3.35-3.35Z"/><path d="m36.8,30.11c-1.85,0-3.35,1.5-3.35,3.35v20.07c0,1.85,1.5,3.35,3.35,3.35s3.35-1.5,3.35-3.35v-20.07c0-1.85-1.5-3.35-3.35-3.35Z"/><path d="m46.84,33.46v20.07c0,1.85,1.5,3.35,3.35,3.35s3.35-1.5,3.35-3.35v-20.07c0-1.85-1.5-3.35-3.35-3.35s-3.35,1.5-3.35,3.35Z"/></g></g></svg>