<?xml version="1.0" encoding="UTF-8"?><svg id="_레이어_2" xmlns="http://www.w3.org/2000/svg" viewBox="0 0 66.92 60.22"><g id="Layer_1"><g><path d="M3.35,6.69H63.57c1.85,0,3.35-1.5,3.35-3.35s-1.5-3.35-3.35-3.35H3.35C1.5,0,0,1.5,0,3.35s1.5,3.35,3.35,3.35Z"/><path d="M3.35,33.46H63.57c1.85,0,3.35-1.5,3.35-3.35s-1.5-3.35-3.35-3.35H3.35c-1.85,0-3.35,1.5-3.35,3.35s1.5,3.35,3.35,3.35Z"/><path d="M63.57,53.53h-30.11c-1.85,0-3.35,1.5-3.35,3.35s1.5,3.35,3.35,3.35h30.11c1.85,0,3.35-1.5,3.35-3.35s-1.5-3.35-3.35-3.35Z"/></g></g></svg>