<?xml version="1.0" encoding="UTF-8"?><svg id="_이어_2" xmlns="http://www.w3.org/2000/svg" viewBox="0 0 830.25 143.42"><defs><style>.cls-1{fill:#dc4d00;}</style></defs><g id="_이어_1-2"><g><g><path class="cls-1" d="M214.36,134.3h-.3c-15.79,0-28.31-6.7-34.71-16.24-5.36-8.19-7.15-18.62-7.15-32.78V27.03c0-5.18,4.2-9.39,9.39-9.39h0c5.18,0,9.39,4.2,9.39,9.39v57.06c0,12.22,.74,20.41,4.77,25.92,4.02,5.36,9.83,8.34,18.47,8.34s14.3-2.98,18.18-8.34c4.17-5.51,4.92-13.71,4.92-25.92V27.03c0-5.18,4.2-9.39,9.39-9.39h0c5.18,0,9.39,4.2,9.39,9.39v58.25c0,14.15-1.79,24.58-7.3,32.78-6.41,9.53-18.92,16.24-34.42,16.24Z"/><path class="cls-1" d="M328.63,72.32c-9.53-7.6-16.98-11.32-26.22-11.32-7.3,0-10.28,2.98-10.28,8.34,0,6.11,3.87,8.05,9.53,10.28l9.53,4.17c12.37,5.36,22.79,11.32,22.79,25.18,0,15.94-14.15,26.07-32.48,26.07-3.72,0-7.54-.31-11.35-1.04-11.32-2.18-19.35-12.34-19.35-23.87v-.12c0-1.19,1.19-1.64,2.09-1.04,8.79,7,18.92,11.17,28.01,11.17,9.68,0,14-3.43,14-9.98,0-4.32-3.28-7.45-10.73-10.73l-8.49-3.72c-14.6-6.56-22.5-12.37-22.5-26.07s11.32-22.94,29.95-22.94c2.17,0,4.34,.13,6.51,.41,12.08,1.58,21.05,11.99,21.05,24.17h0c0,1.19-1.19,1.64-2.09,1.04Z"/><path class="cls-1" d="M375.26,46.7c8.94,0,15.94,2.23,21.6,8.79h.15V18.71c0-5.03,4.08-9.11,9.11-9.11h.26c5.03,0,9.11,4.08,9.11,9.11V123.85c0,5.03-4.08,9.11-9.11,9.11h0c-4.77,0-8.74-3.69-9.08-8.45l-.13-1.83h-.3c-4.02,7.3-12.66,11.62-22.2,11.62-19.67,0-34.42-12.66-34.42-41.12,0-32.18,16.54-46.48,35.01-46.48Zm21.75,49.31v-12.51c0-14-8.05-21.9-18.62-21.9-12.22,0-19.81,10.43-19.81,30.84,0,17.88,7.45,27.11,18.18,27.11s20.26-9.53,20.26-23.54Z"/><path class="cls-1" d="M487,72.32c-9.53-7.6-16.98-11.32-26.22-11.32-7.3,0-10.28,2.98-10.28,8.34,0,6.11,3.87,8.05,9.53,10.28l9.53,4.17c12.37,5.36,22.79,11.32,22.79,25.18,0,15.94-14.15,26.07-32.48,26.07-3.72,0-7.54-.31-11.34-1.04-11.32-2.18-19.35-12.34-19.35-23.87v-.12c0-1.19,1.19-1.64,2.09-1.04,8.79,7,18.92,11.17,28.01,11.17,9.68,0,14-3.43,14-9.98,0-4.32-3.28-7.45-10.73-10.73l-8.49-3.72c-14.6-6.56-22.5-12.37-22.5-26.07s11.32-22.94,29.95-22.94c2.17,0,4.34,.13,6.51,.41,12.08,1.58,21.05,11.99,21.05,24.17h0c0,1.19-1.19,1.64-2.09,1.04Z"/><path class="cls-1" d="M597.69,72.32c-6.26-7-13.56-10.43-23.39-10.43-15.94,0-23.69,12.66-23.69,29.35,0,17.58,7.75,28.75,24.43,28.75,9.68,0,16.98-3.87,23.24-11.32,.74-.89,2.09-.45,2.09,.74v.74c0,13.22-10.33,24.29-23.54,24.83-.87,.04-1.77,.05-2.68,.05-25.18,0-42.76-14.75-42.76-43.65,0-27.41,16.54-44.69,42.46-44.69,.87,0,1.72,.02,2.57,.06,13.13,.64,23.36,11.67,23.36,24.82h0c0,1.19-1.34,1.64-2.09,.74Z"/><path class="cls-1" d="M613.48,72.62c-.89,.74-2.09,.15-2.09-1.04v-11.6c0-2.85,1.47-5.54,3.93-6.98,8.37-4.87,17.7-7.64,29.14-7.64,19.96,0,28.9,9.53,28.9,30.54v48.91c0,4.5-3.65,8.15-8.15,8.15h-.77c-4.23,0-7.75-3.23-8.12-7.44l-.25-2.84h-.15c-5.21,7.15-14.45,12.07-24.58,12.07-18.03,0-27.71-9.24-27.71-25.18s10.43-26.52,28.9-29.35l22.5-3.72v-.74c0-10.43-3.28-14.9-13.56-14.9-9.09,0-17.58,2.98-28.01,11.77Zm42.01,26.67h0c0-4.96-4.39-8.76-9.29-8.07l-8.58,1.22c-9.83,1.34-15.64,7-15.64,15.64,0,7.75,4.77,11.47,12.66,11.47,10.58,0,20.86-10.13,20.86-20.26Z"/><path class="cls-1" d="M741.31,72.32c-9.53-7.6-16.98-11.32-26.22-11.32-7.3,0-10.28,2.98-10.28,8.34,0,6.11,3.87,8.05,9.53,10.28l9.53,4.17c12.37,5.36,22.79,11.32,22.79,25.18,0,15.94-14.15,26.07-32.48,26.07-3.72,0-7.54-.31-11.34-1.04-11.32-2.18-19.35-12.34-19.35-23.87v-.12c0-1.19,1.19-1.64,2.09-1.04,8.79,7,18.92,11.17,28.01,11.17,9.68,0,14-3.43,14-9.98,0-4.32-3.28-7.45-10.73-10.73l-8.49-3.72c-14.6-6.56-22.5-12.37-22.5-26.07s11.32-22.94,29.95-22.94c2.17,0,4.34,.13,6.51,.41,12.08,1.58,21.05,11.99,21.05,24.17h0c0,1.19-1.19,1.64-2.09,1.04Z"/><path class="cls-1" d="M759.18,123.79V18.76c0-5.06,4.1-9.16,9.16-9.16h.15c5.06,0,9.16,4.1,9.16,9.16V59.21h.15c5.21-6.85,13.71-12.37,23.99-12.37,18.62,0,28.46,11.02,28.46,33.82v43.13c0,5.06-4.1,9.16-9.16,9.16h0c-5.06,0-9.16-4.1-9.16-9.16v-44.02c0-13.86-5.51-18.62-14.75-18.62-10.88,0-19.67,9.68-19.67,26.07v36.58c0,5.06-4.1,9.16-9.16,9.16h0c-5.06,0-9.16-4.1-9.16-9.16Z"/></g><g><path class="cls-1" d="M19.97,0h50.55c36.85,0,70.25,29.99,72.73,66.76,2.93,43.43-33.06,79.42-76.49,76.49C29.99,140.77,0,107.37,0,70.52v-20.92H0c9.36,0,16.95,7.59,16.95,16.95v4.09c0,28.13,22.88,53.79,50.94,55.7,33.2,2.26,60.71-25.25,58.45-58.45-1.91-28.06-27.57-50.94-55.7-50.94H36.92c-9.36,0-16.95-7.59-16.95-16.95h0Z"/><path class="cls-1" d="M71.71,33.31h-24.84v-.07h-13.56v24.87h0v13.6c0,21.17,17.22,38.4,38.4,38.4s38.4-17.22,38.4-38.4-17.22-38.4-38.4-38.4Zm-24.84,13.56h24.84c13.69,0,24.84,11.14,24.84,24.84s-11.14,24.84-24.84,24.84-24.84-11.14-24.84-24.84v-11.35h0v-13.49Z"/></g></g></g></svg>