<?xml version="1.0" encoding="UTF-8"?><svg id="_레이어_2" xmlns="http://www.w3.org/2000/svg" viewBox="0 0 66.92 53.53"><defs><style>.cls-1{fill:#dc4d00;}</style></defs><g id="Layer_1"><g><path class="cls-1" d="m33.46,0C18.99,0,5.93,10.05.21,25.61c-.27.75-.27,1.57,0,2.31,5.73,15.56,18.78,25.61,33.25,25.61s27.52-10.05,33.25-25.61c.27-.75.27-1.57,0-2.31C60.98,10.05,47.93,0,33.46,0Zm0,46.84c-11.28,0-21.58-7.84-26.53-20.07C11.88,14.53,22.17,6.69,33.46,6.69s21.58,7.84,26.53,20.07c-4.94,12.24-15.24,20.07-26.53,20.07Z"/><path class="cls-1" d="m33.46,13.38c-7.38,0-13.38,6-13.38,13.38s6,13.38,13.38,13.38,13.38-6,13.38-13.38-6-13.38-13.38-13.38Zm0,20.07c-3.69,0-6.69-3-6.69-6.69s3-6.69,6.69-6.69,6.69,3,6.69,6.69-3,6.69-6.69,6.69Z"/></g></g></svg>