<?xml version="1.0" encoding="UTF-8"?><svg id="_레이어_2" xmlns="http://www.w3.org/2000/svg" viewBox="0 0 73.61 73.61"><g id="Layer_1"><path d="m36.8,0C16.51,0,0,16.51,0,36.8s16.51,36.8,36.8,36.8,36.8-16.51,36.8-36.8S57.1,0,36.8,0Zm0,66.92c-16.6,0-30.11-13.51-30.11-30.11S20.2,6.69,36.8,6.69s30.11,13.51,30.11,30.11-13.51,30.11-30.11,30.11Z"/><path d="m49.21,17.71c-1.31-1.31-3.42-1.31-4.73,0l-23.42,23.42c-.37.37-.64.81-.81,1.31l-3.35,10.04c-.4,1.2-.09,2.53.81,3.42.64.64,1.49.98,2.37.98.35,0,.71-.06,1.06-.17l10.04-3.35c.49-.16.94-.44,1.31-.81l23.42-23.42c1.31-1.31,1.31-3.42,0-4.73l-6.69-6.69Zm-20.9,29.55l-2.94.98.98-2.94,20.5-20.5,1.96,1.96-20.5,20.5Z"/></g></svg>