<?xml version="1.0" encoding="UTF-8"?><svg id="_레이어_2" xmlns="http://www.w3.org/2000/svg" viewBox="0 0 66.92 66.92"><g id="Layer_1"><path d="m65.94.98c-1.31-1.31-3.42-1.31-4.73,0l-10.71,10.71c-5.14-3.21-10.96-5-17.03-5C18.99,6.69,5.93,16.75.21,32.3c-.27.75-.27,1.57,0,2.31,2.44,6.62,6.21,12.23,10.85,16.51L.98,61.2c-1.31,1.31-1.31,3.42,0,4.73.65.65,1.51.98,2.37.98s1.71-.33,2.37-.98l10.71-10.71c5.14,3.21,10.96,5,17.03,5,14.47,0,27.52-10.05,33.25-25.61.27-.75.27-1.57,0-2.31-2.44-6.62-6.21-12.24-10.85-16.51l10.08-10.08c1.31-1.31,1.31-3.42,0-4.73ZM15.84,46.35c-3.7-3.35-6.81-7.69-8.91-12.89,4.94-12.24,15.24-20.07,26.53-20.07,4.27,0,8.4,1.13,12.15,3.19l-5.4,5.4c-1.99-1.18-4.28-1.9-6.76-1.9-7.38,0-13.38,6-13.38,13.38,0,2.47.72,4.77,1.9,6.76l-6.13,6.13Zm24.06-14.6c.15.55.25,1.12.25,1.71,0,3.69-3,6.69-6.69,6.69-.59,0-1.16-.1-1.71-.25l8.15-8.15Zm-12.88,3.42c-.15-.55-.25-1.12-.25-1.71,0-3.69,3-6.69,6.69-6.69.6,0,1.16.1,1.71.25l-8.15,8.15Zm32.97-1.71c-4.94,12.24-15.24,20.07-26.53,20.07-4.27,0-8.4-1.13-12.15-3.19l5.4-5.4c1.99,1.18,4.28,1.9,6.76,1.9,7.38,0,13.38-6,13.38-13.38,0-2.47-.72-4.77-1.9-6.76l6.13-6.13c3.7,3.35,6.81,7.69,8.91,12.89Z"/></g></svg>