<?xml version="1.0" encoding="UTF-8"?><svg id="_레이어_2" xmlns="http://www.w3.org/2000/svg" viewBox="0 0 15.28 15.28"><g id="Layer_1"><path d="M7.64,0c2.11,0,4.02,.85,5.4,2.24,1.38,1.38,2.24,3.29,2.24,5.4s-.86,4.02-2.24,5.4c-1.38,1.38-3.29,2.24-5.4,2.24s-4.02-.85-5.4-2.24S0,9.75,0,7.64,.85,3.62,2.24,2.24C3.62,.85,5.53,0,7.64,0h0Zm3.98,7.14c.28,0,.5,.22,.5,.5s-.22,.5-.5,.5h-3.48v3.48c0,.28-.22,.5-.5,.5s-.5-.22-.5-.5v-3.48H3.66c-.28,0-.5-.22-.5-.5s.22-.5,.5-.5h3.48V3.66c0-.28,.22-.5,.5-.5s.5,.22,.5,.5v3.48h3.48Zm.72-4.19c-1.2-1.2-2.86-1.95-4.7-1.95s-3.49,.74-4.7,1.95c-1.2,1.2-1.94,2.86-1.94,4.69s.74,3.49,1.94,4.7c1.2,1.2,2.86,1.94,4.7,1.94s3.49-.74,4.7-1.94c1.2-1.2,1.94-2.86,1.94-4.7s-.74-3.49-1.94-4.69h0Z"/></g></svg>