<?xml version="1.0" encoding="UTF-8"?><svg id="_레이어_2" xmlns="http://www.w3.org/2000/svg" viewBox="0 0 15.28 15.28"><g id="Layer_1"><path d="M4.08,5.22c0-.45,.15-.91,.44-1.37,.29-.46,.71-.85,1.27-1.15,.56-.3,1.2-.46,1.95-.46,.69,0,1.3,.13,1.82,.38,.53,.25,.93,.6,1.22,1.04,.29,.44,.43,.91,.43,1.43,0,.4-.08,.76-.25,1.06-.17,.3-.36,.57-.58,.79-.23,.22-.63,.59-1.22,1.12-.16,.15-.29,.28-.39,.39-.1,.11-.17,.21-.22,.31-.05,.09-.09,.19-.11,.28-.03,.09-.07,.26-.12,.49-.09,.49-.37,.74-.85,.74-.25,0-.46-.08-.62-.24-.17-.16-.25-.4-.25-.72,0-.4,.06-.74,.18-1.04,.12-.29,.29-.55,.49-.77,.2-.22,.48-.48,.83-.79,.3-.27,.52-.47,.66-.6,.14-.13,.25-.29,.34-.45,.09-.17,.14-.35,.14-.54,0-.38-.14-.7-.42-.96-.28-.26-.65-.39-1.09-.39-.52,0-.91,.13-1.16,.4-.25,.26-.46,.65-.63,1.16-.16,.54-.47,.8-.92,.8-.27,0-.49-.09-.67-.28-.18-.19-.27-.39-.27-.61h0ZM1,7.64c0,1.83,.74,3.49,1.94,4.7,1.2,1.2,2.86,1.94,4.69,1.94s3.49-.74,4.7-1.94c1.2-1.2,1.94-2.86,1.94-4.7s-.74-3.49-1.94-4.7c-1.2-1.2-2.86-1.95-4.7-1.95s-3.49,.74-4.69,1.95c-1.2,1.2-1.94,2.86-1.94,4.7h0Zm1.24,5.4C.85,11.66,0,9.75,0,7.64S.85,3.62,2.24,2.24,5.53,0,7.64,0s4.02,.86,5.4,2.24c1.38,1.38,2.24,3.29,2.24,5.4s-.86,4.02-2.24,5.4c-1.38,1.38-3.29,2.24-5.4,2.24s-4.02-.86-5.4-2.24h0Zm5.31,0c-.29,0-.54-.09-.76-.28-.22-.19-.32-.45-.32-.79,0-.3,.11-.55,.31-.76,.21-.2,.46-.31,.77-.31s.55,.1,.76,.31c.2,.21,.31,.46,.31,.76,0,.33-.11,.59-.32,.78-.21,.19-.46,.29-.74,.29h0Z"/></g></svg>