<?xml version="1.0" encoding="UTF-8"?><svg id="_레이어_2" xmlns="http://www.w3.org/2000/svg" viewBox="0 0 66.9 66.9"><g id="Layer_1"><path d="M26.9,53.79c5.84,0,11.66-1.9,16.5-5.67l17.79,17.79c.65,.65,1.51,.98,2.37,.98s1.71-.33,2.37-.98c1.31-1.31,1.31-3.42,0-4.73l-17.79-17.79c3.67-4.7,5.68-10.44,5.68-16.5,0-7.19-2.8-13.95-7.88-19.03C35.43-2.62,18.36-2.62,7.87,7.87c-10.49,10.49-10.49,27.57,0,38.06,5.25,5.25,12.14,7.87,19.03,7.87ZM12.6,12.6c3.94-3.94,9.12-5.91,14.3-5.91s10.36,1.97,14.3,5.91c3.82,3.82,5.92,8.9,5.92,14.3s-2.1,10.48-5.92,14.3c-7.88,7.89-20.71,7.88-28.6,0-7.88-7.88-7.88-20.71,0-28.59Z"/></g></svg>