<?xml version="1.0" encoding="UTF-8"?><svg id="_레이어_2" xmlns="http://www.w3.org/2000/svg" viewBox="0 0 70.26 70.26"><defs><style>.cls-1{fill:#ccc;}</style></defs><g id="Layer_1"><path class="cls-1" d="M67.4,24.32l-19.46-2.84L38.12,1.85c-.57-1.13-1.73-1.85-2.99-1.85s-2.42,.72-2.99,1.85l-9.82,19.63L2.86,24.32c-1.31,.19-2.38,1.13-2.74,2.41-.36,1.28,.07,2.64,1.09,3.48l16.08,13.26-5.07,22.72c-.3,1.36,.26,2.75,1.42,3.52,1.16,.76,2.67,.74,3.8-.08l17.69-12.72,17.69,12.72c.58,.42,1.27,.63,1.95,.63,.64,0,1.28-.18,1.84-.55,1.16-.77,1.73-2.17,1.42-3.52l-5.07-22.72,16.08-13.26c1.02-.84,1.45-2.21,1.09-3.48-.36-1.27-1.43-2.22-2.74-2.41Zm-20.27,15.29c-.97,.8-1.41,2.08-1.13,3.31l3.6,16.15-12.51-9c-1.17-.84-2.74-.84-3.91,0l-12.51,9,3.6-16.15c.27-1.23-.16-2.51-1.13-3.31l-11.84-9.76,13.72-2c1.08-.16,2.02-.83,2.51-1.81l7.6-15.2,7.6,15.2c.49,.98,1.43,1.66,2.51,1.81l13.72,2-11.84,9.76Z"/></g></svg>